# xmcd CD database file
#
# Track frame offsets:
#	150
#	18099
#	31883
#	41145
#	50738
#	67681
#	81449
#	93942
#	109958
#	128245
#	139675
#	155298
#	181685
#	191226
#	201655
#	212133
#
# Disc length: 3054 seconds
#
# Revision: 0
# Processed by: cddbd v1.5.1PL0 Copyright (c) Steve Scherf et al.
# Submitted via: CDex 1.51
#
DISCID=e10bec10
DTITLE=John Ragusa and Rob Silvan - Beneath it all
DYEAR=1999
DGENRE=Jazz
TTITLE0=Waltz
TTITLE1=Crystal Silence
TTITLE2=Conference of the Birds
TTITLE3=Parallel Play
TTITLE4=In My Life
TTITLE5=Motherless Child
TTITLE6=Up Jumped Spring
TTITLE7=Cloud Creatures
TTITLE8=It Was a Very Good Year
TTITLE9=Beneath It All
TTITLE10=Nardia
TTITLE11=Three Strange Angels
TTITLE12=Swing Low, Sweet Chariot
TTITLE13=The Water is Wide
TTITLE14=Birds Over Water
TTITLE15=Lotus on Irish Streams
EXTD=YEAR: 1999
EXTT0=
EXTT1=
EXTT2=
EXTT3=
EXTT4=
EXTT5=
EXTT6=
EXTT7=
EXTT8=
EXTT9=
EXTT10=
EXTT11=
EXTT12=
EXTT13=
EXTT14=
EXTT15=
PLAYORDER=
